<?xml version="1.0" encoding="UTF-8" standalone="no"?> <svg xmlns="http://www.w3.org/2000/svg" xmlns:xlink="http://www.w3.org/1999/xlink" xmlns:serif="http://www.serif.com/" width="100%" height="100%" viewBox="0 0 1333 360" version="1.1" xml:space="preserve" style="fill-rule:evenodd;clip-rule:evenodd;stroke-linejoin:round;stroke-miterlimit:2;" fill="#ffffff"> <g transform="matrix(1,0,0,1,-10848,0)"> <g id="Artboard1" transform="matrix(0.807374,0,0,0.636229,7305.49,-129.114)"> <rect x="4388.3" y="202.937" width="1650.39" height="565.834" style="fill:none;"></rect> <g transform="matrix(1.21321,0,0,1.3037,-1037.14,-124.638)"> <g transform="matrix(2.20774,0,0,2.60717,4941.52,433.801)"> <path d="M0,23.6L29.556,23.6L14.778,-16.022L0,23.6ZM-26.417,55.273L7.323,-31.673L22.494,-31.673L55.973,55.273L41.325,55.273L33.479,34.033L-3.923,34.033L-11.77,55.273L-26.417,55.273Z" style="fill-rule:nonzero;"></path> </g> <g transform="matrix(2.20774,0,0,2.60717,2710.62,-2626.09)"> <path d="M1077.05,1167.31L1090.91,1167.31L1090.91,1228.92L1077.05,1228.92L1077.05,1167.31ZM1083.98,1155.64C1081.37,1155.64 1079.21,1154.87 1077.51,1153.34C1075.81,1151.81 1074.96,1149.88 1074.96,1147.56C1074.96,1145.25 1075.81,1143.32 1077.51,1141.79C1079.21,1140.26 1081.37,1139.49 1083.98,1139.49C1086.6,1139.49 1088.76,1140.26 1090.46,1141.79C1092.16,1143.32 1093.01,1145.25 1093.01,1147.56C1093.01,1149.88 1092.16,1151.81 1090.46,1153.34C1088.76,1154.87 1086.6,1155.64 1083.98,1155.64" style="fill-rule:nonzero;"></path> </g> <g transform="matrix(2.20774,0,0,2.60717,5153.73,413.4)"> <path d="M0,63.098L0,1.491L12.424,1.491L13.601,13.166C15.867,9.11 19.028,5.9 23.082,3.54C27.136,1.18 32.04,0 37.794,0L37.794,13.787L34.002,13.787C30.164,13.787 26.744,14.389 23.736,15.588C20.728,16.79 18.329,18.818 16.543,21.675C14.755,24.531 13.862,28.487 13.862,33.537L13.862,63.098L0,63.098Z" style="fill-rule:nonzero;"></path> </g> <g transform="matrix(2.20774,0,0,2.60717,5352.37,347.338)"> <path d="M0,89.927C-8.631,89.927 -16.173,88.064 -22.624,84.338C-29.077,80.611 -34.09,75.395 -37.664,68.687C-41.239,61.98 -43.025,54.155 -43.025,45.212C-43.025,36.353 -41.194,28.527 -37.533,21.737C-33.871,14.948 -28.662,9.626 -21.905,5.776C-15.149,1.926 -7.15,0 2.093,0C12.554,0 21.271,2.403 28.248,7.204C35.222,12.008 39.756,18.631 41.849,27.078L26.156,27.078C24.76,22.441 22.013,18.799 17.916,16.147C13.818,13.498 8.543,12.173 2.093,12.173C-7.499,12.173 -15.039,15.113 -20.532,20.992C-26.024,26.872 -28.77,34.986 -28.77,45.336C-28.77,55.688 -26.069,63.762 -20.662,69.557C-15.258,75.354 -8.065,78.251 0.915,78.251C9.982,78.251 16.805,75.81 21.382,70.923C25.959,66.038 28.64,59.539 29.425,51.422L4.577,51.422L4.577,41.237L43.418,41.237L43.418,88.437L30.732,88.437L29.556,75.643C26.503,80.198 22.667,83.717 18.047,86.201C13.425,88.685 7.41,89.927 0,89.927" style="fill-rule:nonzero;"></path> </g> <g transform="matrix(2.20774,0,0,2.60717,5549.27,443.193)"> <path d="M0,41.734C5.928,41.734 10.789,39.789 14.581,35.896C18.374,32.005 20.27,26.996 20.27,20.867C20.27,14.657 18.374,9.626 14.581,5.776C10.789,1.925 5.928,-0 0,-0C-5.93,-0 -10.812,1.925 -14.647,5.776C-18.485,9.626 -20.401,14.657 -20.401,20.867C-20.401,24.925 -19.531,28.527 -17.786,31.673C-16.043,34.821 -13.624,37.284 -10.528,39.064C-7.434,40.845 -3.923,41.734 0,41.734M-2.485,53.161C-8.762,53.161 -14.299,51.752 -19.093,48.938C-23.889,46.124 -27.639,42.274 -30.34,37.387C-33.043,32.502 -34.394,26.953 -34.394,20.743C-34.394,14.532 -33.043,9.005 -30.34,4.161C-27.639,-0.683 -23.867,-4.491 -19.028,-7.266C-14.189,-10.039 -8.631,-11.427 -2.354,-11.427C2.789,-11.427 7.301,-10.474 11.181,-8.57C15.06,-6.664 18.09,-3.975 20.27,-0.497L21.055,-9.937L34.133,-9.937L34.133,51.671L21.186,51.671L20.27,42.107C18.178,45.006 15.301,47.572 11.639,49.808C7.977,52.043 3.269,53.161 -2.485,53.161" style="fill-rule:nonzero;"></path> </g> <g transform="matrix(2.20774,0,0,2.60717,5732.9,510.549)"> <path d="M0,15.899C5.928,15.899 10.81,13.974 14.647,10.123C18.483,6.273 20.401,1.243 20.401,-4.968C20.401,-9.024 19.529,-12.626 17.786,-15.774C16.04,-18.92 13.644,-21.383 10.593,-23.164C7.54,-24.944 4.009,-25.835 0,-25.835C-5.93,-25.835 -10.789,-23.888 -14.581,-19.997C-18.374,-16.104 -20.27,-11.095 -20.27,-4.968C-20.27,1.243 -18.374,6.273 -14.581,10.123C-10.789,13.974 -5.93,15.899 0,15.899M-34.133,53.161L-34.133,-35.772L-21.709,-35.772L-20.27,-26.207C-18.178,-29.105 -15.301,-31.673 -11.639,-33.908C-7.977,-36.144 -3.269,-37.262 2.485,-37.262C8.762,-37.262 14.297,-35.853 19.093,-33.039C23.887,-30.223 27.659,-26.372 30.406,-21.487C33.152,-16.601 34.525,-11.054 34.525,-4.844C34.525,1.367 33.152,6.894 30.406,11.738C27.659,16.582 23.887,20.392 19.093,23.165C14.297,25.939 8.717,27.326 2.354,27.326C-2.704,27.326 -7.172,26.373 -11.051,24.469C-14.931,22.566 -18.004,19.874 -20.27,16.396L-20.27,53.161L-34.133,53.161Z" style="fill-rule:nonzero;"></path> </g> </g> <g transform="matrix(1.21321,0,0,1.3037,-1037.14,-145.008)"> <g transform="matrix(1.33096,0,0,1.57176,4685.88,277.712)"> <path d="M0,256.937C42.511,238.631 75.681,196.303 80.154,153.438C84.561,111.201 79.907,54.211 79.707,51.805L79.057,44.017L71.542,41.876C71.325,41.815 49.704,35.629 34.026,28.94C14.172,20.47 -5.906,8.839 -6.106,8.723L-19.534,0.916C-21.109,0 -23.083,1.136 -23.083,2.958L-23.083,18.5C-23.083,22.823 -20.656,26.576 -17.09,28.475C-14.088,30.205 5.276,41.243 25.159,49.725C36.24,54.453 49.548,58.801 57.735,61.331C58.838,78.229 60.953,119.713 57.678,151.093C55.821,168.896 47.405,187.566 33.983,203.662C24.341,215.224 12.614,224.891 0,231.81L0,256.937Z" style="fill-rule:nonzero;"></path> </g> <g transform="matrix(1.33096,0,0,1.57176,4641.21,422.285)"> <path d="M0,80.878L-18.406,80.878C-26.538,80.878 -33.126,74.142 -32.883,65.956C-32.65,58.079 -25.979,51.911 -18.098,51.911L16.957,51.911C37.372,51.911 54.311,35.61 54.509,15.196C54.709,-5.417 37.998,-22.251 17.43,-22.251L-0.2,-22.147C-6.25,-22.163 -11.166,-27.089 -11.166,-33.142L-11.166,-88.855C-11.166,-90.67 -13.129,-91.807 -14.704,-90.904L-28.085,-83.231C-28.288,-83.115 -48.613,-71.496 -68.631,-62.997C-84.399,-56.304 -105.805,-50.164 -106.018,-50.103L-113.583,-47.944L-114.183,-40.1C-114.368,-37.677 -118.67,19.739 -114.267,61.938C-111.951,84.137 -101.737,107.017 -85.507,126.365C-69.631,145.292 -48.755,160.011 -26.725,167.813L-14.806,172.033C-13.268,172.577 -11.655,171.436 -11.655,169.806L-11.655,157.16C-11.655,152.14 -14.929,147.885 -19.459,146.414C-37.642,139.913 -54.94,127.644 -68.194,111.843C-81.558,95.912 -89.938,77.356 -91.792,59.593C-95.067,28.207 -93.162,-13.632 -92.154,-30.672C-84.024,-33.19 -70.873,-37.497 -59.802,-42.197C-50.495,-46.147 -41.269,-50.652 -33.764,-54.51L-33.764,-33.142C-33.764,-14.619 -18.694,0.45 -0.171,0.45L17.46,0.347C25.582,0.364 32.156,7.099 31.907,15.279C31.667,23.153 24.999,29.314 17.123,29.314L-18.406,29.314C-38.975,29.314 -55.685,46.147 -55.485,66.76C-55.287,87.174 -38.348,103.475 -17.933,103.475L0,103.475C6.063,103.475 10.995,108.408 10.995,114.455C10.995,114.455 10.946,149.897 10.946,157.269L10.946,169.913C10.946,171.544 12.56,172.685 14.097,172.14L26.017,167.919C28.561,167.018 31.075,166.025 33.56,164.956L33.56,113.174C32.875,95.25 18.088,80.878 0,80.878" style="fill-rule:nonzero;"></path> </g> </g> </g> </g> </svg> 