<svg width="184" height="53" fill="none" xmlns="http://www.w3.org/2000/svg">
  <path d="M79.5 26.5a9 9 0 0 0-3.4-7.3c-2.4-1.9-5.5-2.9-8.6-2.8H55.9v5h11.6c1.6 0 3.1.5 4.4 1.5a4.9 4.9 0 0 1 1.7 3.9 4.6 4.6 0 0 1-1.7 3.8 6.7 6.7 0 0 1-4.4 1.4h-5.7v-7.7h-6v12.8h11.7c3.1 0 6.2-1 8.6-3a9.7 9.7 0 0 0 3.4-7.6ZM86 26.5a9.6 9.6 0 0 0 3.3 7.6c2.4 2 5.5 3 8.6 3h10.2V32H98c-1.6 0-3.1-.5-4.4-1.5a4.7 4.7 0 0 1-1.7-3.7 4.8 4.8 0 0 1 1.7-3.9c1.3-1 2.8-1.5 4.4-1.4h10.2v-5H98c-3.1-.2-6.2.8-8.6 2.7a9.2 9.2 0 0 0-3.4 7.3ZM127.3 21.5l4.8-5h-20.8V37h19.8v-5h-14v-3h14v-4.8h-14v-2.8h10.2ZM158.2 16.4h-5.9v12l-12.8-11.1a3 3 0 0 0-2.3-.9 2.5 2.5 0 0 0-2 .8c-.4.4-.6 1-.6 1.7v18h6V25l12.7 11.2a3.5 3.5 0 0 0 2.6 1c1.6 0 2.3-.9 2.3-2.7v-18ZM184 16.4h-23v5h8.6v15.7h5.9V21.5h8.5v-5Z" fill="#414042"/>
  <path d="M84 21.4h-2.6l-2-5H86l-2 5Z" fill="#27C4B8"/>
  <path d="m23.6 10.6 3.9-2.3V3l-4-2.3v9.9Z" fill="#A4A7A9"/>
  <path d="M9.2 33.8v-15l13-7.5V.7L.8 13.1a1.3 1.3 0 0 0-.7 1.2V39l9.2-5.3Z" fill="#27C4B8"/>
  <path d="m36 34.9-13.1 7.5-13-7.5-9.2 5.3 21.6 12.4a1.3 1.3 0 0 0 1.3 0l21.6-12.4-9.3-5.3Z" fill="#6D6E71"/>
  <path d="m45.2 13.1-8.6-4.9v5.4l-9.2 5.2 9.2 5.3v9.6l9.2 5.3V14.3a1.3 1.3 0 0 0-.6-1.2Z" fill="#A4A7A9"/>
  <path d="M18.3 24v10.5l9-5.1V18.9l-9 5.1Z" fill="#6D6E71"/>
</svg>
