<svg width="244" height="72" viewBox="0 0 244 72" fill="none" xmlns="http://www.w3.org/2000/svg">
<path d="M0.133893 9.19683V11.3353V40.8192H0.137897C0.0257824 43.592 0.574345 46.209 1.63343 48.6646C6.39231 59.6925 21.4558 67.4896 33.2138 71.722L33.2118 66.1802C18.4607 60.8313 11.3194 53.8614 8.41839 48.8408C5.85176 44.3988 6.15807 41.0029 6.15807 41.0029V12.3758L33.2138 5.13877V1.02693V0.503906L2.53636 8.60518L0.133893 9.19683Z" fill="#FEBA11"></path>
<path d="M34.0947 64.5667C35.9767 63.7117 37.7265 62.8493 39.3501 61.9831L39.5303 47.1939V9.18576L34.0947 7.65564V64.5667Z" fill="#FEBA11"></path>
<path d="M44.5557 58.1105C46.6478 57.135 49.9912 54.2046 49.9912 54.2046V49.323V11.3149L44.5557 9.78479V58.1105Z" fill="#FEBA11"></path>
<path d="M54.9419 13.0472L55.0941 35.2126C55.0941 35.2126 55.0941 45.8437 55.0941 49.388L55.2442 49.2303C55.5866 48.8167 55.9049 48.4106 56.2012 48.0136C60.0351 42.891 60.2233 39.2725 60.2233 39.2725V35.4778L60.3755 14.5774L54.9419 13.0472Z" fill="#FEBA11"></path>
<path fill-rule="evenodd" clip-rule="evenodd" d="M98.3368 43.299C99.0856 42.2808 99.6582 41.0845 100.051 39.7102H96.1526C95.6801 41.1847 94.9093 42.3271 93.8462 43.1376C92.605 44.0872 90.9993 44.5602 89.0413 44.5602C87.6899 44.5602 86.4867 44.269 85.4436 43.6736C84.4106 43.0894 83.5557 42.2196 82.875 41.0771C82.3444 40.2017 81.94 39.2298 81.6718 38.1671C81.4115 37.1136 81.2814 35.9748 81.2814 34.7507C81.2814 33.3338 81.4495 32.041 81.7899 30.88C82.1322 29.693 82.6628 28.6395 83.3655 27.727C84.0842 26.783 84.9551 26.0708 85.9702 25.5904C86.9912 25.1064 88.1284 24.8634 89.3897 24.8634C90.1825 24.8634 90.9353 24.9784 91.658 25.2121C92.3807 25.4402 93.0654 25.7833 93.7121 26.2359C94.3768 26.7033 94.9253 27.2615 95.3618 27.9125C95.6681 28.3706 95.9264 28.8769 96.1246 29.4278H100.145C99.8864 28.161 99.3979 27.039 98.6732 26.0764C97.7743 24.8782 96.501 23.9008 94.8553 23.1589L94.8493 23.1515C93.2356 22.4041 91.3817 22.0276 89.3056 22.0276C88.4067 22.0276 87.5498 22.0999 86.749 22.2372C85.9341 22.3744 85.1473 22.5821 84.4026 22.8585C82.9711 23.4019 81.7558 24.1883 80.7508 25.2084C79.7438 26.2414 78.941 27.523 78.3483 29.0494L78.3423 29.055C78.006 29.9267 77.7477 30.8559 77.5836 31.8463C77.4134 32.833 77.3213 33.8976 77.3213 35.0401C77.3213 36.4552 77.4594 37.7479 77.7237 38.9164C77.984 40.0663 78.3764 41.1086 78.8989 42.023C79.4134 42.941 80.0261 43.7423 80.7328 44.4248C81.4335 45.098 82.2263 45.66 83.1212 46.1051V46.1088C84.0182 46.5614 84.9811 46.9045 85.9922 47.1326C87.0012 47.357 88.0823 47.472 89.2315 47.472C90.2766 47.472 91.2476 47.3737 92.1685 47.1771C93.0734 46.975 93.9243 46.6819 94.7111 46.2925L94.7131 46.2869C96.2087 45.5487 97.4199 44.5565 98.3368 43.299ZM139.479 46.7506H143.007V22.7175H139.479V46.7506ZM111.228 27.5008C114.125 27.5008 116.73 28.647 118.544 30.4794L118.341 30.7261L118.327 30.7094L118.323 30.7428C117.561 31.7257 116.996 32.8571 116.698 34.0756C115.665 32.2506 113.611 31.0043 111.226 31.0043C107.821 31.0043 105.054 33.5619 105.054 36.713C105.054 39.8678 107.821 42.4273 111.226 42.4273C114.543 42.4273 117.25 39.9958 117.388 36.9523C117.384 36.8725 117.384 36.7946 117.384 36.713C117.384 34.7025 118.083 32.8404 119.26 31.3233L119.266 31.2899L119.274 31.301C121.088 28.9994 124.019 27.4989 127.331 27.4989C132.824 27.4989 137.275 31.6256 137.275 36.713C137.275 41.8041 132.824 45.9289 127.331 45.9289C124.42 45.9289 121.801 44.7698 119.983 42.9225C120.862 41.8579 121.499 40.6078 121.805 39.2521C122.808 41.129 124.908 42.4254 127.331 42.4254C130.74 42.4254 133.499 39.8678 133.499 36.7111C133.499 33.5582 130.74 31.0024 127.331 31.0024C124.041 31.0024 121.344 33.3913 121.174 36.3996L121.166 36.4033C121.172 36.5071 121.172 36.6091 121.172 36.7111C121.172 41.8023 116.724 45.9271 111.228 45.9271C105.738 45.9271 101.282 41.8041 101.282 36.7111C101.282 31.6256 105.738 27.5008 111.228 27.5008Z" fill="#FEBA11"></path>
<path d="M196.435 44.0075V46.3833C195.869 46.5929 195.454 46.6281 194.888 46.6281C192.852 46.6281 191.456 45.8251 191.456 43.9036V43.0653C191.042 43.8702 189.156 46.7691 184.553 46.7691C180.819 46.7691 177.84 45.0572 177.84 41.4239C177.84 37.8258 180.895 36.3569 184.667 35.9025C187.044 35.6224 189.797 35.4129 191.116 34.7136V34.3983C191.116 31.4624 189.456 30.8336 186.854 30.8336C184.365 30.8336 182.932 31.4976 182.629 33.0704H179.01C179.386 29.7857 182.215 28.0739 186.854 28.0739C192.435 28.0739 194.926 30.0305 194.926 35.2367V42.5738C194.926 43.5865 195.34 44.0409 196.435 44.0075ZM191.116 37.1581C189.909 37.7164 187.947 37.926 184.892 38.347C182.591 38.6623 181.686 39.6044 181.686 41.2125C181.686 42.8539 182.855 44.0427 185.12 44.0427C188.854 44.0427 190.625 41.6316 191.116 40.7581V37.1581Z" fill="#FEBA11"></path>
<path d="M203.357 22.2557V46.7135H199.547V22.2557H203.357Z" fill="#FEBA11"></path>
<path d="M211.353 22.2557V46.7135H207.543V22.2557H211.353Z" fill="#FEBA11"></path>
<path d="M232.606 38.59H218.274C218.688 42.2585 221.103 43.8665 224.044 43.8665C225.892 43.8665 227.437 43.3769 228.456 42.0137H232.116C230.532 45.4041 227.816 46.7654 223.743 46.7654C219.369 46.7654 214.464 44.0409 214.464 37.4363C214.464 30.867 219.255 28.072 223.705 28.072C228.42 28.072 232.606 30.9375 232.606 37.7145V38.59ZM218.274 36.1455H228.873C228.532 32.616 226.534 30.9746 223.705 30.9746C220.989 30.9728 218.688 32.6494 218.274 36.1455Z" fill="#FEBA11"></path>
<path d="M164.144 28.0999L157.586 46.7636H153.916L146.43 22.7046H150.544L155.956 41.3349L160.372 28.1166L164.144 28.0999ZM164.24 28.1166L168.659 41.3349L174.071 22.7046H178.185L170.699 46.7654H167.029L160.469 28.1017" fill="#FEBA11"></path>
<path d="M235.812 26.2618H237.916L238.641 29.1199H243.526V31.8648H239.442V41.7763C239.442 43.4233 240.213 43.7961 241.748 43.7961H243.528V46.7673H240.605C237.41 46.7673 235.814 45.1815 235.814 42.0118V26.2618H235.812Z" fill="#FEBA11"></path>
<path d="M237.916 26.2618H239.45V29.1199H238.641L237.916 26.2618Z" fill="#FEBA11"></path>
</svg>