<?xml version="1.0" encoding="UTF-8"?><svg id="Layer_1" xmlns="http://www.w3.org/2000/svg" xmlns:xlink="http://www.w3.org/1999/xlink" viewBox="0 0 1920 1080"><defs><style>.cls-1{fill:url(#linear-gradient);}.cls-2{fill:#48ff91;}</style><linearGradient id="linear-gradient" x1="497.4" y1="-1725.02" x2="615.63" y2="-1297.37" gradientTransform="translate(0 -981.85) scale(1 -1)" gradientUnits="userSpaceOnUse"><stop offset=".26" stop-color="#48ff91"/><stop offset=".66" stop-color="#0094ff"/><stop offset=".8" stop-color="#0038ff"/><stop offset=".89" stop-color="#0500ff"/></linearGradient></defs><path class="cls-2" d="m901.62,454.16h57.29v32.09c18.77-28.84,40.37-32.09,71.99-32.09v56.71h-14.4c-37.89,0-56.03,17.83-56.03,53.15v60.28h-58.85v-170.14Z"/><path class="cls-2" d="m1222.05,624.29h-58.84v-16.22c-12.85,14.91-30.36,21.39-51.95,21.39-41,0-64.18-24.31-64.18-69.02v-106.29h58.84v93.02c0,21.05,10.33,33.36,27.85,33.36s29.43-12,29.43-32.4v-93.98h58.84v170.14Z"/><path class="cls-2" d="m1236.43,571.77h55.11c2.51,12.31,10.96,17.49,31.29,17.49,16.6,0,26.3-3.88,26.3-11.01,0-5.52-4.7-9.09-18.14-12l-44.45-10.05c-29.74-6.79-44.77-23.97-44.77-51.53,0-36.31,26.6-55.1,78.25-55.1s77,18.31,81.4,57.54h-54.77c-.93-10.36-11.59-16.7-29.11-16.7-14.08,0-23.14,4.53-23.14,11.35,0,5.83,5.93,10.36,17.85,13.3l46.63,11.35c30.67,7.44,45.4,23.01,45.4,48.28,0,35.01-30.37,55.75-81.99,55.75s-85.77-22.36-85.77-58.67h-.06Z"/><path class="cls-2" d="m1560.96,507.07v-52.92h-145.24v52.95h43.34v117.19h58.54v-117.22h43.36Z"/><path class="cls-2" d="m885.24,507.07v-52.92h-145.23v52.95h43.34v117.19h58.55v-117.22h43.34Z"/><path class="cls-2" d="m359.04,424.25l144.45-46.95v325.02c-103.18-43.34-144.45-126.4-144.45-173.34v-104.73Z"/><path class="cls-1" d="m647.95,424.25l-144.45-46.95v325.02c103.18-43.34,144.45-126.4,144.45-173.34v-104.73Z"/></svg>